<svg xmlns="http://www.w3.org/2000/svg" xmlns:xlink="http://www.w3.org/1999/xlink" xmlns:lucid="lucid" width="1229.89" height="640"><g transform="translate(-309 -240)" lucid:page-tab-id="0_0"><path d="M460 266c0-3.3 2.7-6 6-6h948c3.3 0 6 2.7 6 6v408c0 3.3-2.7 6-6 6H466c-3.3 0-6-2.7-6-6z" stroke="#000" stroke-width="3" fill-opacity="0"/><use xlink:href="#a" transform="matrix(1,0,0,1,472,272) translate(0 24.739583333333336)"/><path d="M500 326c0-3.3 2.7-6 6-6h468c3.3 0 6 2.7 6 6v288c0 3.3-2.7 6-6 6H506c-3.3 0-6-2.7-6-6z" stroke="#000" stroke-width="3" fill="url(#b)"/><use xlink:href="#c" transform="matrix(1,0,0,1,512,332) translate(0 24.739583333333336)"/><use xlink:href="#d" transform="matrix(1,0,0,1,512,332) translate(127.36979166666667 24.739583333333336)"/><path d="M1009.82 471H982.5v-2h27.32zm50.18 0h-9.82v-2h9.82z"/><path d="M982.53 471h-1.03v-2h1.03zM1075.26 470l-14.26 4.64v-9.28z"/><path d="M1078.5 470l-18.5 6v-12zm-16.5 3.26l10.03-3.26-10.03-3.26z"/><use xlink:href="#e" transform="matrix(1,0,0,1,1009.822265625,454.375) translate(0 24.739583333333336)"/><path d="M696.97 427.6H668.7v-2h28.27zm83.03-1.3h-42.42v-2H780z"/><path d="M668.73 427.6h-1.03v-2h1.03zM795.26 425.3L781 429.94v-9.27z"/><path d="M798.5 425.3l-18.5 6v-12zm-16.5 3.26l10.03-3.26-10.03-3.26z"/><use xlink:href="#f" transform="matrix(1,0,0,1,696.9688734052113,410.9665851082366) translate(0 24.739583333333336)"/><path d="M780 469v2h-43.16v-2zm-111.3 1.46v-2H696v2z"/><path d="M668.73 470.46h-1.03v-2h1.03zM795.26 470L781 474.64v-9.28z"/><path d="M798.5 470l-18.5 6v-12zm-16.5 3.26l10.03-3.26-10.03-3.26z"/><use xlink:href="#g" transform="matrix(1,0,0,1,695.9905493989738,453.835910174417) translate(0 24.739583333333336)"/><path d="M693.9 520.12h-25.2v-2h25.2zm86.1-1.45h-42.84v-2H780z"/><path d="M668.73 520.12h-1.03v-2h1.03zM795.26 517.67L781 522.3v-9.27z"/><path d="M798.5 517.67l-18.5 6v-12zm-16.5 3.26l10.03-3.26L782 514.4z"/><use xlink:href="#h" transform="matrix(1,0,0,1,693.9026119263129,503.49273135849967) translate(0 24.739583333333336)"/><path d="M520 386c0-3.3 2.7-6 6-6h134.2c3.32 0 6 2.7 6 6v168c0 3.3-2.68 6-6 6H526c-3.3 0-6-2.7-6-6z" stroke="#000" stroke-width="3" fill="#fff"/><use xlink:href="#i" transform="matrix(1,0,0,1,532,392) translate(-6.611979166666671 71.48958333333334)"/><use xlink:href="#j" transform="matrix(1,0,0,1,532,392) translate(34.319010416666664 102.73958333333334)"/><path d="M800 386c0-3.3 2.7-6 6-6h148c3.3 0 6 2.7 6 6v168c0 3.3-2.7 6-6 6H806c-3.3 0-6-2.7-6-6z" stroke="#000" stroke-width="3" fill="#fff"/><use xlink:href="#k" transform="matrix(1,0,0,1,812,392) translate(-8.088541666666629 56.36458333333335)"/><use xlink:href="#l" transform="matrix(1,0,0,1,812,392) translate(7.380208333333357 87.61458333333334)"/><use xlink:href="#m" transform="matrix(1,0,0,1,812,392) translate(2.6731770833333712 118.86458333333331)"/><path d="M333.2 394.48H321v-2h12.2z"/><path d="M321.03 394.48H320v-2h1.03zM455.26 387.4l-9.97 3.23v-6.5z"/><path d="M458.5 387.4l-13.2 4.28v-2.1l6.73-2.2-6.74-2.18v-2.1z"/><use xlink:href="#n" transform="matrix(1,0,0,1,333.21484375,374.80969502912365) translate(0 24.739583333333332)"/><use xlink:href="#o" transform="matrix(1,0,0,1,333.21484375,374.80969502912365) translate(64.7265625 24.739583333333332)"/><path d="M338.15 491H321v-2h17.15z"/><path d="M321.03 491H320v-2h1.03zM455.26 479.55L441 484.18v-9.27z"/><path d="M458.5 479.55l-18.15 5.9v-11.8zM442 482.8l10.03-3.25L442 476.3z"/><use xlink:href="#p" transform="matrix(1,0,0,1,338.14973958333337,469.14937987912367) translate(0 24.739583333333332)"/><use xlink:href="#q" transform="matrix(1,0,0,1,338.14973958333337,469.14937987912367) translate(39.07552083333333 24.739583333333332)"/><path d="M347.66 572.87H321v-2h26.66zM440 558.72h-9.16v-2H440z"/><path d="M321.03 572.87H320v-2h1.03zM455.26 557.72L441 562.36v-9.27z"/><path d="M458.5 557.72l-18.5 6v-12zm-16.5 3.26l10.03-3.26-10.03-3.26z"/><use xlink:href="#r" transform="matrix(1,0,0,1,347.6614583333333,549.1706846263703) translate(0 24.739583333333332)"/><use xlink:href="#s" transform="matrix(1,0,0,1,347.6614583333333,549.1706846263703) translate(35.83333333333333 24.739583333333332)"/><path d="M1501 784.13l-.92 3.42-2.53 2.53-3.42.92H1120v-2h373.87l2.64-.7 1.8-1.8.7-2.63V618h2zm-3.45-314.2l2.53 2.52.92 3.42v110.9h-2V476.12l-.7-2.64-1.8-1.8-2.63-.7h-71.37v-2h71.63z"/><path d="M1422.53 471h-1.03v-2h1.03zM1119 794.64l-14.26-4.64 14.26-4.64z"/><path d="M1120 796l-18.5-6 18.5-6zm-12.03-6l10.03 3.26v-6.52z"/><use xlink:href="#t" transform="matrix(1,0,0,1,1472.109375,586.7637471465052) translate(0 24.739583333333336)"/><path d="M319 783.9l.57 2.82 1.5 2.22 2.2 1.5 2.83.56h515.93v2H325.9l-3.4-.7-2.88-1.92-1.93-2.87-.7-3.4V394.48h2z"/><path d="M323 783.8l.94 2.26 2.26.94h515.83v2H325.8l-3.4-1.4-1.4-3.4V394.48h2z"/><path d="M858.05 800l-20-10 20-10z" fill="#fff"/><path d="M858.5 780.9l-18.2 9.1 18.2 9.1-.9 1.8-21.78-10.9 21.8-10.9z"/><path fill="#fff"/><path d="M858.05 791h-20v-2h20zM319 394.5h-2v-1.02h2zM323 394.5h-2v-1.02h2z"/><path d="M860 726c0-3.3 2.7-6 6-6h228c3.3 0 6 2.7 6 6v128c0 3.3-2.7 6-6 6H866c-3.3 0-6-2.7-6-6z" stroke="#000" stroke-width="3" fill="url(#u)"/><g><use xlink:href="#v" transform="matrix(1,0,0,1,872,732) translate(63.670572916666664 68.23958333333334)"/></g><path d="M1080 326c0-3.3 2.7-6 6-6h288c3.3 0 6 2.7 6 6v288c0 3.3-2.7 6-6 6h-288c-3.3 0-6-2.7-6-6z" stroke="#000" stroke-width="3" fill="url(#w)"/><g><use xlink:href="#x" transform="matrix(1,0,0,1,1092,332) translate(0 24.739583333333336)"/><use xlink:href="#y" transform="matrix(1,0,0,1,1092,332) translate(128.21614583333334 24.739583333333336)"/></g><path d="M1160 402.43c0-3.32 2.7-6 6-6h128c3.3 0 6 2.68 6 6v135.14c0 3.32-2.7 6-6 6h-128c-3.3 0-6-2.68-6-6z" stroke="#000" stroke-width="3" fill="#fff"/><g><use xlink:href="#z" transform="matrix(1,0,0,1,1172,408.4285714285714) translate(19.58203125 71.23958333333334)"/></g><defs><path d="M1245-974c0 302-233 466-552 461H430V0H130v-1456h568c323 5 547 167 547 482zm-303 2c1-143-93-241-237-241H430v457h268c151 1 244-71 244-216" id="A"/><path d="M416 0H126v-1536h290V0" id="B"/><path d="M552-1102c254-4 435 134 435 383v469c1 103 15 180 43 233V0H738c-13-26-23-58-29-97C639-19 548 20 436 20 238 20 64-113 68-304c5-258 212-357 496-357h133c11-137-29-227-160-227-90 0-156 45-156 131H92c15-231 213-342 460-345zM357-325c0 76 61 124 142 124 88 0 168-45 198-105v-186H589c-152 2-232 51-232 167" id="C"/><path d="M750-692c-1-124-48-174-173-175-81 0-142 35-183 104V0H105v-1082h272l9 125c77-97 181-145 311-145 244 0 342 151 342 403V0H750v-692" id="D"/><path d="M416 0H126v-1082h290V0zM271-1212c-92 0-162-61-162-150s68-149 162-149c93 0 162 60 162 149s-70 150-162 150" id="E"/><path d="M505 20C221 18 69-239 69-549c0-302 153-553 438-553 119 0 211 41 277 122l12-102h262V-36c-8 305-208 458-520 462-160 1-335-76-403-170L263 80c72 81 159 121 262 121 172 1 260-107 243-294C701-18 614 20 505 20zm76-887c-165 0-223 147-223 339 0 172 66 314 221 314 88 0 151-33 189-99v-455c-39-66-101-99-187-99" id="F"/><g id="a"><use transform="matrix(0.013020833333333334,0,0,0.013020833333333334,0,0)" xlink:href="#A"/><use transform="matrix(0.013020833333333334,0,0,0.013020833333333334,17.200520833333336,0)" xlink:href="#B"/><use transform="matrix(0.013020833333333334,0,0,0.013020833333333334,24.270833333333336,0)" xlink:href="#C"/><use transform="matrix(0.013020833333333334,0,0,0.013020833333333334,38.567708333333336,0)" xlink:href="#D"/><use transform="matrix(0.013020833333333334,0,0,0.013020833333333334,53.50260416666667,0)" xlink:href="#D"/><use transform="matrix(0.013020833333333334,0,0,0.013020833333333334,68.4375,0)" xlink:href="#E"/><use transform="matrix(0.013020833333333334,0,0,0.013020833333333334,75.5078125,0)" xlink:href="#D"/><use transform="matrix(0.013020833333333334,0,0,0.013020833333333334,90.44270833333333,0)" xlink:href="#F"/></g><radialGradient gradientUnits="userSpaceOnUse" id="b" fx="740" fy="470" cx="740" cy="470" r="240"><stop offset="0%" stop-color="#fff"/><stop offset="51.51%" stop-color="#e5e5e5"/><stop offset="100%" stop-color="#c1c1c1"/></radialGradient><path d="M1212-428C1211-131 1004 0 696 0H130v-1456h510c318-1 539 108 539 399 0 155-89 264-208 308 141 33 242 151 241 321zM687-241c132 2 225-65 225-190 0-133-69-203-207-203H430v393h257zm192-786c0-145-86-186-239-186H430v367h222c151-3 227-63 227-181" id="G"/><path d="M1031-175C952-60 797 20 609 20 287 20 60-206 72-543c12-330 180-559 505-559 309 0 482 214 477 537v118H365c15 134 115 234 263 234 111 0 198-40 261-121zM770-644c5-139-62-226-194-224-130 1-191 97-208 224h402" id="H"/><path d="M750-685c-1-124-48-182-173-182-85 0-146 33-184 98V0H104v-1536h289v572c77-92 173-138 289-138 235 0 357 136 357 409V0H750v-685" id="I"/><path d="M516-353l201-729h302L654 0H378L13-1082h302" id="J"/><path d="M579 20C257 20 58-214 66-551c8-331 182-551 511-551 324 0 514 231 514 572 0 319-198 550-512 550zm-2-888c-169 0-222 141-222 338 0 181 61 317 224 317 170 0 223-137 223-338 0-178-64-317-225-317" id="K"/><path d="M463 20c-241-1-359-147-359-393v-709h289v699c0 113 51 169 154 169 98 0 165-34 202-102v-766h290V0H767l-8-110C688-23 589 20 463 20" id="L"/><path d="M719-811c-143-24-279 1-319 103V0H111v-1082h273l8 129c74-124 180-175 331-136" id="M"/><g id="c"><use transform="matrix(0.013020833333333334,0,0,0.013020833333333334,0,0)" xlink:href="#G"/><use transform="matrix(0.013020833333333334,0,0,0.013020833333333334,17.018229166666668,0)" xlink:href="#H"/><use transform="matrix(0.013020833333333334,0,0,0.013020833333333334,31.432291666666668,0)" xlink:href="#I"/><use transform="matrix(0.013020833333333334,0,0,0.013020833333333334,46.35416666666667,0)" xlink:href="#C"/><use transform="matrix(0.013020833333333334,0,0,0.013020833333333334,60.45572916666667,0)" xlink:href="#J"/><use transform="matrix(0.013020833333333334,0,0,0.013020833333333334,73.93229166666667,0)" xlink:href="#E"/><use transform="matrix(0.013020833333333334,0,0,0.013020833333333334,81.00260416666667,0)" xlink:href="#K"/><use transform="matrix(0.013020833333333334,0,0,0.013020833333333334,96.08072916666667,0)" xlink:href="#L"/><use transform="matrix(0.013020833333333334,0,0,0.013020833333333334,111.00260416666667,0)" xlink:href="#M"/></g><g id="d"><use transform="matrix(0.013020833333333334,0,0,0.013020833333333334,0,0)" xlink:href="#A"/><use transform="matrix(0.013020833333333334,0,0,0.013020833333333334,17.200520833333336,0)" xlink:href="#B"/><use transform="matrix(0.013020833333333334,0,0,0.013020833333333334,24.270833333333336,0)" xlink:href="#C"/><use transform="matrix(0.013020833333333334,0,0,0.013020833333333334,38.567708333333336,0)" xlink:href="#D"/><use transform="matrix(0.013020833333333334,0,0,0.013020833333333334,53.50260416666667,0)" xlink:href="#D"/><use transform="matrix(0.013020833333333334,0,0,0.013020833333333334,68.4375,0)" xlink:href="#E"/><use transform="matrix(0.013020833333333334,0,0,0.013020833333333334,75.5078125,0)" xlink:href="#D"/><use transform="matrix(0.013020833333333334,0,0,0.013020833333333334,90.44270833333333,0)" xlink:href="#F"/></g><path d="M651-954l273-502h345L845-734 1280 0H931L651-510 371 0H22l435-734-424-722h345" id="N"/><path d="M190-1174c-11-296 244-440 544-363l-3 224c-24-6-53-9-88-9-109 0-163 51-163 153v87h215v212H480V0H190v-870H29v-212h161v-92" id="O"/><g id="e"><use transform="matrix(0.013020833333333334,0,0,0.013020833333333334,0,0)" xlink:href="#N"/><use transform="matrix(0.009114583333333334,0,0,0.009114583333333334,16.940104166666668,4.329427083333334)" xlink:href="#M"/><use transform="matrix(0.009114583333333334,0,0,0.009114583333333334,23.575520833333332,4.329427083333334)" xlink:href="#H"/><use transform="matrix(0.009114583333333334,0,0,0.009114583333333334,33.665364583333336,4.329427083333334)" xlink:href="#O"/></g><g id="f"><use transform="matrix(0.013020833333333334,0,0,0.013020833333333334,0,0)" xlink:href="#A"/><use transform="matrix(0.009114583333333334,0,0,0.009114583333333334,17.200520833333336,4.329427083333334)" xlink:href="#M"/><use transform="matrix(0.009114583333333334,0,0,0.009114583333333334,23.835937500000004,4.329427083333334)" xlink:href="#H"/><use transform="matrix(0.009114583333333334,0,0,0.009114583333333334,33.92578125,4.329427083333334)" xlink:href="#O"/></g><path d="M668-361l330-1095h334L825 0H512L7-1456h333" id="P"/><g id="g"><use transform="matrix(0.013020833333333334,0,0,0.013020833333333334,0,0)" xlink:href="#P"/><use transform="matrix(0.009114583333333334,0,0,0.009114583333333334,17.434895833333336,4.329427083333334)" xlink:href="#M"/><use transform="matrix(0.009114583333333334,0,0,0.009114583333333334,24.070312500000004,4.329427083333334)" xlink:href="#H"/><use transform="matrix(0.009114583333333334,0,0,0.009114583333333334,34.16015625,4.329427083333334)" xlink:href="#O"/></g><path d="M607 12C273-28 68-217 68-577v-505h290v494c0 201 83 321 249 360v-854h289v856c181-38 272-161 272-369 0-142-38-304-108-487h268c86 145 129 308 129 487 0 368-218 574-561 608v465H607V12" id="Q"/><g id="h"><use transform="matrix(0.013020833333333334,0,0,0.013020833333333334,0,0)" xlink:href="#Q"/><use transform="matrix(0.009114583333333334,0,0,0.009114583333333334,19.84375,4.329427083333334)" xlink:href="#M"/><use transform="matrix(0.009114583333333334,0,0,0.009114583333333334,26.479166666666664,4.329427083333334)" xlink:href="#H"/><use transform="matrix(0.009114583333333334,0,0,0.009114583333333334,36.56901041666667,4.329427083333334)" xlink:href="#O"/></g><path d="M1209-1016c0 219-100 334-260 407l315 595V0H942L669-533H430V0H130v-1456h541c318-3 538 141 538 440zm-300 24c-1-144-85-221-238-221H430v437h242c144 2 238-77 237-216" id="R"/><path d="M673-507H110v-233h563v233" id="S"/><path d="M663-1102c295 0 423 246 423 571 0 313-131 551-421 551-117 0-211-45-281-135L371 0H111v-1536h289v551c67-78 154-117 263-117zm-71 889c164 0 209-139 205-339-3-189-44-315-207-315-92 0-155 38-190 113v427c35 76 99 114 192 114" id="T"/><path d="M529-185c94 0 168-33 168-114 0-35-18-63-53-83s-91-39-168-55C219-491 90-600 90-765c0-208 203-337 432-337 246 0 451 124 453 349H686c-2-91-62-143-165-143-86 0-151 41-153 117 0 32 16 57 46 77 63 43 257 69 335 100 151 60 229 153 229 291C978-13 554 93 282-28 162-81 60-190 56-344h274c5 106 86 159 199 159" id="U"/><path d="M488 20C204 20 66-234 66-549c0-305 140-551 424-553 105 0 192 39 261 118v-552h290V0H780l-14-115C694-25 601 20 488 20zM355-528c0 176 51 314 207 314 89 0 152-38 189-113v-427c-36-75-98-113-187-113-139 0-209 113-209 339" id="V"/><g id="i"><use transform="matrix(0.013020833333333334,0,0,0.013020833333333334,0,0)" xlink:href="#R"/><use transform="matrix(0.013020833333333334,0,0,0.013020833333333334,17.018229166666668,0)" xlink:href="#L"/><use transform="matrix(0.013020833333333334,0,0,0.013020833333333334,31.940104166666668,0)" xlink:href="#B"/><use transform="matrix(0.013020833333333334,0,0,0.013020833333333334,39.01041666666667,0)" xlink:href="#H"/><use transform="matrix(0.013020833333333334,0,0,0.013020833333333334,53.42447916666667,0)" xlink:href="#S"/><use transform="matrix(0.013020833333333334,0,0,0.013020833333333334,63.76302083333335,0)" xlink:href="#T"/><use transform="matrix(0.013020833333333334,0,0,0.013020833333333334,78.77604166666667,0)" xlink:href="#C"/><use transform="matrix(0.013020833333333334,0,0,0.013020833333333334,93.07291666666667,0)" xlink:href="#U"/><use transform="matrix(0.013020833333333334,0,0,0.013020833333333334,106.78385416666667,0)" xlink:href="#H"/><use transform="matrix(0.013020833333333334,0,0,0.013020833333333334,121.19791666666667,0)" xlink:href="#V"/></g><path d="M1006-595H430V0H130v-1456h948v243H430v376h576v242" id="W"/><path d="M658-217c127 0 227-49 227-165 0-57-21-98-60-130-79-64-370-142-463-196-162-95-248-210-248-361 0-280 246-403 537-407 213-3 383 84 467 216 45 69 68 147 68 234H886c0-139-96-211-240-211-129 0-232 55-232 169 0 47 24 87 72 119s117 62 210 90c171 51 295 115 373 191s117 171 117 284c-2 272-237 411-528 404C331 13 78-135 69-458h301c0 161 96 241 288 241" id="X"/><path d="M522-1456L896-400l372-1056h394V0h-301c-7-379 15-728 30-1085L998 0H792L400-1084c15 357 37 705 30 1084H130v-1456h392" id="Y"/><g id="j"><use transform="matrix(0.013020833333333334,0,0,0.013020833333333334,0,0)" xlink:href="#W"/><use transform="matrix(0.013020833333333334,0,0,0.013020833333333334,14.609375,0)" xlink:href="#X"/><use transform="matrix(0.013020833333333334,0,0,0.013020833333333334,31.002604166666668,0)" xlink:href="#Y"/></g><path d="M449 0H149v-1456h300V0" id="Z"/><path d="M457-330c2 83 25 111 111 112 32 0 60-2 85-7V-6c-57 17-115 26-175 26-203 0-310-102-310-307v-583H10v-212h158v-266h289v266h185v212H457v540" id="aa"/><path d="M741-689c-2-124-40-177-163-178-82 0-141 34-178 102V0H111v-1082h271l9 121c77-94 180-141 311-141 139 0 235 55 287 165 76-110 184-165 325-165 249 0 348 151 348 411V0h-290v-690c-2-123-39-176-163-177-87 0-147 41-180 124l1 743H741v-689" id="ab"/><g id="k"><use transform="matrix(0.013020833333333327,0,0,0.013020833333333327,0,0)" xlink:href="#Z"/><use transform="matrix(0.013020833333333327,0,0,0.013020833333333327,7.7734374999999964,0)" xlink:href="#D"/><use transform="matrix(0.013020833333333327,0,0,0.013020833333333327,22.70833333333332,0)" xlink:href="#aa"/><use transform="matrix(0.013020833333333327,0,0,0.013020833333333327,31.718749999999986,0)" xlink:href="#H"/><use transform="matrix(0.013020833333333327,0,0,0.013020833333333327,46.13281249999998,0)" xlink:href="#M"/><use transform="matrix(0.013020833333333327,0,0,0.013020833333333327,55.85937499999997,0)" xlink:href="#ab"/><use transform="matrix(0.013020833333333327,0,0,0.013020833333333327,78.94531249999996,0)" xlink:href="#H"/><use transform="matrix(0.013020833333333327,0,0,0.013020833333333327,93.35937499999994,0)" xlink:href="#V"/><use transform="matrix(0.013020833333333327,0,0,0.013020833333333327,108.38541666666659,0)" xlink:href="#E"/><use transform="matrix(0.013020833333333327,0,0,0.013020833333333327,115.45572916666661,0)" xlink:href="#C"/><use transform="matrix(0.013020833333333327,0,0,0.013020833333333327,129.7526041666666,0)" xlink:href="#aa"/><use transform="matrix(0.013020833333333327,0,0,0.013020833333333327,138.76302083333326,0)" xlink:href="#H"/></g><path d="M355-556c-2 203 30 338 206 343 102 3 181-63 182-161h271C1001-128 821 17 566 20 242 24 66-212 66-554c0-320 184-548 498-548 262 0 451 167 450 423H743c-1-108-75-193-184-189-162 6-202 123-204 312" id="ac"/><g id="l"><use transform="matrix(0.013020833333333327,0,0,0.013020833333333327,0,0)" xlink:href="#R"/><use transform="matrix(0.013020833333333327,0,0,0.013020833333333327,17.018229166666657,0)" xlink:href="#H"/><use transform="matrix(0.013020833333333327,0,0,0.013020833333333327,31.43229166666665,0)" xlink:href="#O"/><use transform="matrix(0.013020833333333327,0,0,0.013020833333333327,40.677083333333314,0)" xlink:href="#H"/><use transform="matrix(0.013020833333333327,0,0,0.013020833333333327,55.09114583333331,0)" xlink:href="#M"/><use transform="matrix(0.013020833333333327,0,0,0.013020833333333327,64.57031249999997,0)" xlink:href="#H"/><use transform="matrix(0.013020833333333327,0,0,0.013020833333333327,78.98437499999997,0)" xlink:href="#D"/><use transform="matrix(0.013020833333333327,0,0,0.013020833333333327,93.9192708333333,0)" xlink:href="#ac"/><use transform="matrix(0.013020833333333327,0,0,0.013020833333333327,107.82552083333329,0)" xlink:href="#H"/></g><path d="M399-777c-11 316 60 556 342 556 113 0 193-24 241-72v-251H709v-221h573v581C1177-55 960 24 725 20 280 12 81-292 94-770c11-421 200-700 610-706 347-5 543 171 578 483H990c-25-157-105-241-277-241-102 0-180 38-233 115s-76 191-81 342" id="ad"/><g id="m"><use transform="matrix(0.013020833333333327,0,0,0.013020833333333327,0,0)" xlink:href="#ad"/><use transform="matrix(0.013020833333333327,0,0,0.013020833333333327,18.164062499999993,0)" xlink:href="#H"/><use transform="matrix(0.013020833333333327,0,0,0.013020833333333327,32.578124999999986,0)" xlink:href="#D"/><use transform="matrix(0.013020833333333327,0,0,0.013020833333333327,47.513020833333314,0)" xlink:href="#H"/><use transform="matrix(0.013020833333333327,0,0,0.013020833333333327,61.9270833333333,0)" xlink:href="#M"/><use transform="matrix(0.013020833333333327,0,0,0.013020833333333327,71.2630208333333,0)" xlink:href="#C"/><use transform="matrix(0.013020833333333327,0,0,0.013020833333333327,85.55989583333329,0)" xlink:href="#aa"/><use transform="matrix(0.013020833333333327,0,0,0.013020833333333327,94.57031249999994,0)" xlink:href="#E"/><use transform="matrix(0.013020833333333327,0,0,0.013020833333333327,101.64062499999994,0)" xlink:href="#K"/><use transform="matrix(0.013020833333333327,0,0,0.013020833333333327,116.71874999999994,0)" xlink:href="#D"/></g><path d="M430-241h637V0H130v-1456h300v1215" id="ae"/><g id="n"><use transform="matrix(0.013020833333333332,0,0,0.013020833333333332,0,0)" xlink:href="#ae"/><use transform="matrix(0.013020833333333332,0,0,0.013020833333333332,14.440104166666666,0)" xlink:href="#C"/><use transform="matrix(0.013020833333333332,0,0,0.013020833333333332,28.736979166666664,0)" xlink:href="#D"/><use transform="matrix(0.013020833333333332,0,0,0.013020833333333332,43.671875,0)" xlink:href="#H"/></g><g id="o"><use transform="matrix(0.013020833333333332,0,0,0.013020833333333332,0,0)" xlink:href="#Z"/><use transform="matrix(0.013020833333333332,0,0,0.013020833333333332,7.773437499999999,0)" xlink:href="#D"/><use transform="matrix(0.013020833333333332,0,0,0.013020833333333332,22.708333333333332,0)" xlink:href="#O"/><use transform="matrix(0.013020833333333332,0,0,0.013020833333333332,32.265625,0)" xlink:href="#K"/></g><path d="M1006-631H430v390h676V0H130v-1456h974v243H430v347h576v235" id="af"/><g id="p"><use transform="matrix(0.013020833333333332,0,0,0.013020833333333332,0,0)" xlink:href="#af"/><use transform="matrix(0.013020833333333332,0,0,0.013020833333333332,14.999999999999998,0)" xlink:href="#P"/></g><g id="q"><use transform="matrix(0.013020833333333332,0,0,0.013020833333333332,0,0)" xlink:href="#X"/><use transform="matrix(0.013020833333333332,0,0,0.013020833333333332,16.393229166666664,0)" xlink:href="#aa"/><use transform="matrix(0.013020833333333332,0,0,0.013020833333333332,25.40364583333333,0)" xlink:href="#C"/><use transform="matrix(0.013020833333333332,0,0,0.013020833333333332,39.70052083333333,0)" xlink:href="#aa"/><use transform="matrix(0.013020833333333332,0,0,0.013020833333333332,48.71093749999999,0)" xlink:href="#H"/></g><g id="r"><use transform="matrix(0.013020833333333332,0,0,0.013020833333333332,0,0)" xlink:href="#ae"/><use transform="matrix(0.013020833333333332,0,0,0.013020833333333332,11.7578125,0)" xlink:href="#P"/></g><g id="s"><use transform="matrix(0.013020833333333332,0,0,0.013020833333333332,0,0)" xlink:href="#Z"/><use transform="matrix(0.013020833333333332,0,0,0.013020833333333332,7.773437499999999,0)" xlink:href="#D"/><use transform="matrix(0.013020833333333332,0,0,0.013020833333333332,22.708333333333332,0)" xlink:href="#O"/><use transform="matrix(0.013020833333333332,0,0,0.013020833333333332,32.265625,0)" xlink:href="#K"/></g><path d="M1226-1213H780V0H480v-1213H40v-243h1186v243" id="ag"/><g id="t"><use transform="matrix(0.013020833333333334,0,0,0.013020833333333334,0,0)" xlink:href="#ag"/><use transform="matrix(0.009114583333333334,0,0,0.009114583333333334,16.497395833333336,4.329427083333334)" xlink:href="#A"/><use transform="matrix(0.009114583333333334,0,0,0.009114583333333334,28.53776041666667,4.329427083333334)" xlink:href="#M"/><use transform="matrix(0.009114583333333334,0,0,0.009114583333333334,35.17317708333334,4.329427083333334)" xlink:href="#H"/><use transform="matrix(0.009114583333333334,0,0,0.009114583333333334,45.26302083333334,4.329427083333334)" xlink:href="#V"/></g><radialGradient gradientUnits="userSpaceOnUse" id="u" fx="980" fy="790" cx="980" cy="790" r="120"><stop offset="0%" stop-color="#f0f0f0"/><stop offset="56%" stop-color="#ccc"/><stop offset="100%" stop-color="#a8a8a8"/></radialGradient><g id="v"><use transform="matrix(0.013020833333333334,0,0,0.013020833333333334,0,0)" xlink:href="#P"/><use transform="matrix(0.013020833333333334,0,0,0.013020833333333334,16.861979166666668,0)" xlink:href="#H"/><use transform="matrix(0.013020833333333334,0,0,0.013020833333333334,31.276041666666668,0)" xlink:href="#I"/><use transform="matrix(0.013020833333333334,0,0,0.013020833333333334,46.19791666666667,0)" xlink:href="#E"/><use transform="matrix(0.013020833333333334,0,0,0.013020833333333334,53.26822916666667,0)" xlink:href="#ac"/><use transform="matrix(0.013020833333333334,0,0,0.013020833333333334,67.17447916666667,0)" xlink:href="#B"/><use transform="matrix(0.013020833333333334,0,0,0.013020833333333334,74.24479166666667,0)" xlink:href="#H"/></g><radialGradient gradientUnits="userSpaceOnUse" id="w" fx="1230" fy="470" cx="1230" cy="470" r="150"><stop offset="0%" stop-color="#fff"/><stop offset="51.51%" stop-color="#e5e5e5"/><stop offset="100%" stop-color="#c1c1c1"/></radialGradient><path d="M417 59c1 237-132 380-369 378-50 0-98-6-143-17V191c122 27 222 1 222-130v-1143h290V59zM266-1212c-92 0-162-61-162-150s68-149 162-149 162 60 162 149-70 150-162 150" id="ah"/><path d="M515-409l200-673h310L590 168c-66 202-236 321-472 250V199c127 7 198-15 230-107l34-89L3-1082h311" id="ai"/><g id="x"><use transform="matrix(0.013020833333333334,0,0,0.013020833333333334,0,0)" xlink:href="#ag"/><use transform="matrix(0.013020833333333334,0,0,0.013020833333333334,15.65104166666667,0)" xlink:href="#M"/><use transform="matrix(0.013020833333333334,0,0,0.013020833333333334,24.98697916666667,0)" xlink:href="#C"/><use transform="matrix(0.013020833333333334,0,0,0.013020833333333334,39.28385416666667,0)" xlink:href="#ah"/><use transform="matrix(0.013020833333333334,0,0,0.013020833333333334,46.21093750000001,0)" xlink:href="#H"/><use transform="matrix(0.013020833333333334,0,0,0.013020833333333334,60.625,0)" xlink:href="#ac"/><use transform="matrix(0.013020833333333334,0,0,0.013020833333333334,74.53125,0)" xlink:href="#aa"/><use transform="matrix(0.013020833333333334,0,0,0.013020833333333334,83.15104166666667,0)" xlink:href="#K"/><use transform="matrix(0.013020833333333334,0,0,0.013020833333333334,98.22916666666667,0)" xlink:href="#M"/><use transform="matrix(0.013020833333333334,0,0,0.013020833333333334,108.19010416666667,0)" xlink:href="#ai"/></g><g id="y"><use transform="matrix(0.013020833333333334,0,0,0.013020833333333334,0,0)" xlink:href="#A"/><use transform="matrix(0.013020833333333334,0,0,0.013020833333333334,17.200520833333336,0)" xlink:href="#B"/><use transform="matrix(0.013020833333333334,0,0,0.013020833333333334,24.270833333333336,0)" xlink:href="#C"/><use transform="matrix(0.013020833333333334,0,0,0.013020833333333334,38.567708333333336,0)" xlink:href="#D"/><use transform="matrix(0.013020833333333334,0,0,0.013020833333333334,53.50260416666667,0)" xlink:href="#D"/><use transform="matrix(0.013020833333333334,0,0,0.013020833333333334,68.4375,0)" xlink:href="#E"/><use transform="matrix(0.013020833333333334,0,0,0.013020833333333334,75.5078125,0)" xlink:href="#D"/><use transform="matrix(0.013020833333333334,0,0,0.013020833333333334,90.44270833333333,0)" xlink:href="#F"/></g><path d="M1314 0h-300L430-958V0H130v-1456h300l585 960v-960h299V0" id="aj"/><path d="M687-225c189-1 272-84 286-260h300c-19 311-251 505-586 505C296 20 86-277 86-686c0-466 174-782 605-790 340-6 557 198 584 514H975c-15-183-92-268-284-268-100 0-173 38-225 108-63 84-76 264-76 443 0 157 24 272 72 345s122 109 225 109" id="ak"/><g id="z"><use transform="matrix(0.013020833333333334,0,0,0.013020833333333334,0,0)" xlink:href="#aj"/><use transform="matrix(0.013020833333333334,0,0,0.013020833333333334,18.828125,0)" xlink:href="#Y"/><use transform="matrix(0.013020833333333334,0,0,0.013020833333333334,42.1875,0)" xlink:href="#A"/><use transform="matrix(0.013020833333333334,0,0,0.013020833333333334,59.388020833333336,0)" xlink:href="#ak"/></g></defs></g></svg>